<?xml version="1.0" encoding="utf-8"?>
<!-- Generator: Adobe Illustrator 27.2.0, SVG Export Plug-In . SVG Version: 6.00 Build 0)  -->
<svg version="1.1" id="Camada_1" xmlns="http://www.w3.org/2000/svg" xmlns:xlink="http://www.w3.org/1999/xlink" x="0px" y="0px"
	 viewBox="0 0 32 32" style="enable-background:new 0 0 32 32;" xml:space="preserve">
<style type="text/css">
	.st0{fill:#D8E1EF;}
	.st1{fill:#0593FF;}
	.st2{fill:#054872;}
</style>
<path class="st0" d="M5,6h20c1.7,0,3,1.3,3,3v12c0,1.7-1.3,3-3,3H5c-1.7,0-3-1.3-3-3V9C2,7.3,3.3,6,5,6z"/>
<path class="st1" d="M25,26c-0.3,0-0.5-0.1-0.7-0.3l-2-2c-0.4-0.4-0.4-1,0-1.4s1-0.4,1.4,0l1.3,1.3l3.3-3.3c0.4-0.4,1-0.4,1.4,0
	s0.4,1,0,1.4l-4,4C25.5,25.9,25.3,26,25,26z"/>
<rect x="21.9" y="8" class="st2" width="0.3" height="9.2"/>
<rect x="24.8" y="8" class="st2" width="0.4" height="9.2"/>
<rect x="16" y="8" class="st2" width="0.3" height="9.2"/>
<rect x="18.9" y="8" class="st2" width="0.4" height="9.2"/>
<rect x="10.3" y="8" class="st2" width="0.3" height="9.2"/>
<rect x="13.2" y="8" class="st2" width="0.4" height="9.2"/>
<rect x="4.5" y="8" class="st2" width="0.3" height="9.2"/>
<rect x="7.4" y="8" class="st2" width="0.4" height="9.2"/>
</svg>
