<?xml version="1.0" encoding="utf-8"?>
<!-- Generator: Adobe Illustrator 27.3.0, SVG Export Plug-In . SVG Version: 6.00 Build 0)  -->
<svg version="1.1" id="Camada_1" xmlns="http://www.w3.org/2000/svg" xmlns:xlink="http://www.w3.org/1999/xlink" x="0px" y="0px"
	 viewBox="0 0 500 250" style="enable-background:new 0 0 500 250;" xml:space="preserve">
<style type="text/css">
	.st0{fill:#FF7BAC;}
</style>
<g>
	
		<image style="overflow:visible;opacity:0.27;" width="458" height="169" xlink:href="3366E667.png"  transform="matrix(1 0 0 1 23 43.5)">
	</image>
	<g>
		<g>
			<path class="st0" d="M295.1,70c4.5-0.9,9.2-1.1,13.8-0.6c9.4,0.9,15.3-3.1,18.6-11.7c0.9-2.3,2.3-4.5,3.7-6.6
				c3.1-4.5,7.4-6.9,12.9-6.9c16.8-0.2,33.6-0.3,50.3-0.4c6.1,0,10.7,2.9,13.9,8c2.9,4.5,5.7,9.2,8.3,13.8c2.5,4.4,6,6.5,11.1,6.4
				c8.9-0.1,17.7,0.4,26.6,0c14.1-0.6,20.8,11.2,20.7,20.6c-0.2,15.2-0.5,30.4-0.7,45.6c-0.1,6.3-0.3,12.7-0.4,19
				c0,0.7,0.1,1.5-0.8,2.4c-0.2-9.6-0.5-18.9-0.7-28.2c-0.2-12.5-0.4-24.9-0.6-37.4c0-2.6-0.4-5-1.3-7.5c-2.5-7-7.7-10.7-15.2-10.6
				c-9.4,0.1-18.8,0.1-28.2,0.2c-6.2,0.1-10.7-2.6-13.8-7.8c-2.7-4.5-5.4-9.1-8.1-13.6c-2.8-4.7-6.8-6.8-12.3-6.9
				c-15.9,0-31.9-0.2-47.8-0.4c-5.7-0.1-10,2.3-12.9,7.1c-2,3.2-3.8,6.6-5.7,9.8c-2.7,4.4-6.6,6.7-11.8,6.7c-6.5,0-13.1,0-19.6,0
				C295.1,70.7,295.1,70.3,295.1,70z"/>
			<path class="st0" d="M390.2,82c-19.1-7.8-34.8-4.7-45.3,8.9c-9.5,12.3-9.5,29.2-0.2,41.8c10.1,13.6,25.9,16.9,44.9,9.3
				c-9,9.4-30.8,7.9-43.1-2.9c-14.5-12.7-16.4-34.8-4.3-50C353.8,74.6,375.7,71.3,390.2,82z"/>
			<path class="st0" d="M347.8,111.3c0.9,12.3,9.1,21.2,20.6,22.5c10.6,1.1,20.8-5.6,23.9-15.9c3.5-11.7-1.7-21.9-14.5-28.4
				c9.4,0.1,18.7,11.8,18.5,23.3c-0.3,13.8-11.7,24.6-25.4,24C357.2,136.4,347.1,125.1,347.8,111.3z"/>
			<path class="st0" d="M443.8,60.6c3.7,0,7.4,0,11.1,0c1.7,0,2.9,0.3,2.9,2.4c0,2.1-1.1,2.6-3,2.6c-7.5,0-15,0-22.4,0
				c-1.8,0-3.1-0.3-3.1-2.6c0-2.3,1.4-2.4,3.2-2.4C436.2,60.6,440,60.6,443.8,60.6z"/>
			<path class="st0" d="M452.6,93.1c0,2.7-2.2,4.8-4.9,4.8c-2.7-0.1-4.8-2.3-4.7-5c0.1-2.6,2.1-4.6,4.7-4.6
				C450.5,88.2,452.7,90.4,452.6,93.1z"/>
			<g>
				<path class="st0" d="M116.5,184.2c0.2-0.5,0.3-0.7,0.7-0.7c0.5,0,0.7,0.3,0.7,0.7c0,3-5.4,9.4-13.8,9.4
					c-10.7,0-19.9-5.3-37.3-17.4c-1.2-0.7-2.1-1.5-3.1-2.1c-5.3,4.4-12.2,7.1-21.9,7.1c-9.9,0-16.8-5.8-16.8-13.3
					c0-5.6,3.6-10,12.3-10c8.4,0,15.6,5.4,24.5,10.7c5.6-8.5,9.1-23.1,12-35.5c7.4-30.4,11.8-46.8,35-46.8c10.7,0,15,7.8,15,17.3
					c0,12-5.8,17.4-12.7,17.4c-7.9,0-11-4.8-11-9c0-4.4,2.3-6.6,4.3-6.6c1.5,0,2.3,1,2.3,2.6c0,2.3-3.6,2.5-3.6,6.1
					c0,2.6,2.5,4.3,6.1,4.3c6.6,0,11.8-6.2,11.8-17.3c0-7.7-5.3-12.3-13.6-12.3c-14.8,0-23.5,16-29.5,40.9c-4.1,16.9-5.1,32.1-12,41
					l9,8c16.3,10.7,22.8,12,30,12C111,190.4,115.5,186,116.5,184.2z M58.3,170.5c-8.9-5.9-15.6-9.4-22.2-9.4c-6.1,0-7.4,2.9-7.4,6.2
					c0,6.6,4.9,10.4,13.3,10.4C48.8,177.8,54.2,175.1,58.3,170.5z"/>
				<path class="st0" d="M118.5,175c1.8,0,6.2-3.9,9.1-7c0.4-0.4,0.6-0.5,0.7-0.5c0.2,0,0.5,0.2,0.5,0.4c0,0.2-0.1,0.3-0.3,0.6
					c-4.4,5-8.5,8.2-11.5,8.2c-1.5,0-2.6-0.7-2.6-2.7c0-1.8,1-5.2,1.9-7.2c0.3-0.7,0.2-1-0.4-0.3c-0.5,0.6-1.4,1.5-2,2
					c-0.3,0.4-0.5,0.5-0.7,0.5s-0.4-0.2-0.4-0.4c0-0.2,0-0.3,0.2-0.6c2.4-2.6,4.9-5.6,6.8-8.5c0.3-0.5,0.7-0.7,1-0.7
					c1,0,1.6,1.5,1.6,2.5c0,0.5-0.4,1.4-1.1,2.7c-2.3,4.2-3.6,8.1-3.6,9.8C117.6,174.7,118,175,118.5,175z M126.1,149.7
					c-0.2,0-0.4-0.2-0.4-0.6c0-0.7,0.4-1.6,0.4-2.3c0-0.5-0.2-0.7-0.2-1.1c0-1.1,1.1-1.6,1.5-2c0.4-0.5,0.7-1.1,1.3-1.1
					c0.5,0,0.7,0.2,0.7,0.9C129.4,146.1,127.3,149.7,126.1,149.7z"/>
				<path class="st0" d="M152.1,179.8c0,0.2-0.2,0.4-0.7,0.4c-3.8,0-6.8-2.7-6.8-10.8c0-0.9,0-1.9,0.1-2.9
					c-3.7,7.1-6.9,10.4-9.6,10.4c-1.9,0-3.8-2-3.8-7.4c0-1.5,0.1-2.9,0.2-4.6c-1.1,1.4-2.3,2.7-3.2,3.6c-0.3,0.4-0.5,0.5-0.7,0.5
					s-0.4-0.2-0.4-0.4c0-0.2,0-0.3,0.2-0.6c1.5-1.6,2.9-3.3,4.4-5.1c2-12.2,8.9-26.1,14-26.1c1.5,0,2.4,1.2,2.4,3.8
					c0,5-3.9,12.7-13,21.4c-0.6,2.9-0.9,5.7-0.9,8.2c0,3.8,1,5,2,5c2,0,5.7-5.5,8.7-11.8c2-12,8.8-25.7,13.8-25.7
					c1.5,0,2.4,1.2,2.4,3.7c0,5-3.9,12.5-12.7,21.1c-0.7,3.2-1.1,6.4-1.1,9.1c0,6.8,1.5,7.9,4,8.1
					C152,179.6,152.1,179.6,152.1,179.8z M135.8,160c6.8-6.7,11-14.3,11-18.9c0-1.3-0.4-1.8-1.2-1.8
					C143,139.2,138.1,149.8,135.8,160z M149,160.6c6.6-6.7,10.9-14.2,10.9-18.9c0-1.3-0.5-1.8-1.3-1.8
					C156,140,151.4,150.3,149,160.6z"/>
				<path class="st0" d="M145.8,204.9c0-0.5,0.3-0.8,0.9-0.8c0.6,0,0.7,0.2,0.9,0.7c0.2,0.4,0.8,0.7,1.6,0.7
					c9.8,0,19.5-21.6,23-36.9c0.2-0.8-0.1-1.1-0.7-0.4c-2.4,2.5-4.5,4.5-6.8,6.2c-2.5,2-4,2.8-5.1,2.8c-1.1,0-1.9-0.7-1.9-2.5
					c0-2.4,2.1-6.9,3.3-9.6c0.3-0.8-0.2-1.2-0.7-0.7c-1.1,1.3-2.7,3-3.8,4.2c-0.3,0.4-0.5,0.5-0.7,0.5s-0.4-0.2-0.4-0.4
					c0-0.2,0-0.3,0.2-0.6c2-2.3,4.6-5.1,6.2-7.1c0.8-1.1,2.3-2.4,2.8-2.4c0.7,0,1.3,1.5,1.3,2.5c0,0.5,0,0.7-0.8,2.5
					c-1.9,4.2-3.4,8.5-3.4,9.6c0,0.6,0.2,0.7,0.7,0.7c0.9,0,3.8-1.9,7.6-5.9c2-2.1,4.2-4.7,5.1-7c0.8-2.3,1.4-2.9,1.9-2.9
					c0.9,0,1.4,1.9,1.4,2.9c0,1.6-1.7,2.5-2.7,6.9c-4,18.5-14.9,38.4-26.5,38.4C147,206.2,145.8,205.6,145.8,204.9z"/>
				<path class="st0" d="M215.8,151.6c0,0.8-0.8,1.6-3.1,1.6c-3-0.2-6.3,1.9-6.3,7.1c0,8,4.1,15.1,14.3,15.1
					c14.4,0,27.3-12.7,45.4-37.1c-6.8-6.3-15.1-10.5-24-10.5c-7.9,0-14.4,4.7-14.4,13c0,6.1,4.7,10.2,10.5,10.2
					c4.1,0,6.4-2.8,6.4-3.9c0-0.5-1.3-0.9-1.3-2.2c0-0.9,0.6-2,1.7-2c1.1,0,2.7,0.8,2.7,2.4c0,3.9-3.9,8-11.1,8
					c-7.4,0-13.7-5.2-13.7-13.5c0-10,9-15.9,19-15.9c10.7,0,19,4.7,26.1,11.8c8.5-11.6,18.1-25.6,29.7-42.1c1.7-2.5,3.5-3.6,3.9-3.6
					c1.4,0-1.4,8.3-1.8,10.4c-1.6,8.7-14.1,32.3-8.9,69.3c0.4,3.1,0.5,4.2,0.5,5.7c0,0.9-0.5,1.7-1.7,2.4c-1.3,0.6-2.2,1.3-3,1.3
					c-1.1,0-1.6-0.9-1.7-2.5c-0.6-11.3-6.8-25.6-16.3-35.6c-17.6,25.6-30.3,39.7-47.7,39.7c-12.6,0-18.4-9.4-18.4-16.2
					c0-9.6,7.1-14,10.8-14C214.9,150.4,215.8,150.9,215.8,151.6z M284.9,156c1.6-26.4,10-48.8,10-50.6c0-0.8-0.5-1.3-0.8-1.3
					c-0.6,0-1.6,0.5-3.1,2.7c-7.9,11.8-14.4,22.1-20.7,31.2c4.9,5.3,9.3,11.8,13.5,18.5C284.6,157.8,284.9,157,284.9,156z"/>
				<path class="st0" d="M313.5,179.8c0,0.2-0.2,0.4-0.7,0.4c-3.8,0-6.7-2.7-6.7-10.8c0-1.5,0.1-2.9,0.2-4.6
					c-1.1,1.4-2.3,2.7-3.2,3.6c-0.3,0.4-0.5,0.5-0.7,0.5s-0.4-0.2-0.4-0.4c0-0.2,0-0.3,0.2-0.6c1.5-1.6,2.9-3.3,4.4-5.1
					c2-12.2,8.9-26.1,14-26.1c1.5,0,2.4,1.2,2.4,3.8c0,5-3.9,12.7-12.9,21.3c-0.7,3.4-1.1,6.8-1.1,9.6c0,6.8,1.5,7.9,4,8.1
					C313.4,179.6,313.5,179.6,313.5,179.8z M310.5,159.9c6.7-6.7,10.9-14.2,10.9-18.9c0-1.3-0.4-1.8-1.2-1.8
					C317.6,139.2,313,149.5,310.5,159.9z"/>
				<path class="st0" d="M334.3,161.7c-0.8,0-1.8,0.6-4.4,2.9c-3,2.8-5,5.4-6.3,9.1l-0.6,1.8c-0.2,0.7-0.6,1.1-1.3,1.1
					c-0.7,0-1.8-0.7-1.8-1.4c0-0.4,0.1-1.1,0.8-2.8l3.5-9.4c0.3-1-0.1-1.1-0.7-0.3c-1.2,1.5-3.8,4.2-5.2,5.6
					c-0.3,0.4-0.5,0.5-0.7,0.5s-0.4-0.2-0.4-0.4c0-0.2,0-0.3,0.2-0.6c2.2-2.4,5.1-5.1,6.6-7.8c0.9-1.6,2.4-2.1,2.7-2.1
					c0.6,0,0.9,0.7,0.9,2c0,0.5-0.1,1.1-0.4,2.2l-1.1,3.7c-0.4,1.2,0.1,1.1,0.7,0.4c4.9-5.7,7.8-7.1,9.9-7.1c1.4,0,2.2,0.8,2.2,2.4
					c0,0.5-0.2,1.7-0.7,3.3l-0.7,2.1c-0.2,0.7,0,1.1,0.6,0.2c3.4-4.5,6.4-6.7,8.1-6.7c1.2,0,2,1.2,2,3.6c0,1.4-0.2,4.2-0.2,5.7
					c0,2.6,0.7,3.1,1.7,3.1c1.4,0,4.2-2.8,6.1-4.9c0.4-0.4,0.6-0.5,0.7-0.5c0.2,0,0.5,0.2,0.5,0.4c0,0.2-0.1,0.3-0.3,0.6
					c-3.5,4-6.8,6.6-9.1,6.6c-1.8,0-3.3-1.1-3.3-4.5c0-2.4,0.2-5.1,0.2-6s-0.2-1.2-0.7-1.2c-0.6,0-1.4,0.5-3.1,2.3
					c-2.7,3-4.1,4.8-4.7,7.4l-0.6,1.9c-0.2,0.7-0.9,1.1-1.8,1.1s-1.5-0.4-1.5-1.3c0-0.5,0.2-1.3,0.9-3.7l1.3-4.2
					c0.5-1.6,0.8-3,0.8-3.6C335.3,162.1,334.9,161.7,334.3,161.7z"/>
				<path class="st0" d="M361.3,175.2c3.2,0,7.8-3.5,11.3-7.3c0.4-0.4,0.5-0.5,0.7-0.5c0.2,0,0.5,0.2,0.5,0.4c0,0.2-0.2,0.2-0.3,0.6
					c-4.7,5.3-9.3,8.2-13.2,8.2c-3.5,0-5.1-1.8-5.1-5.1c0-5,5.1-12.7,10.5-12.7c1.6,0,2.7,1.3,2.7,2.8c0,3.4-4.7,7.6-9.4,8.1
					c-0.2,0.8-0.3,1.6-0.3,2.4C358.6,174.3,359.5,175.2,361.3,175.2z M366,160.8c-1.9,0-5.1,3.6-6.5,7.5c4.2-0.2,7.3-3.9,7.3-6.6
					C366.7,161,366.5,160.8,366,160.8z"/>
				<path class="st0" d="M378.1,175c1.8,0,6.2-3.9,9.1-7c0.4-0.4,0.6-0.5,0.7-0.5c0.2,0,0.5,0.2,0.5,0.4c0,0.2-0.1,0.3-0.3,0.6
					c-4.4,5-8.5,8.2-11.5,8.2c-1.5,0-2.6-0.7-2.6-2.7c0-1.8,1-5.2,1.9-7.2c0.3-0.7,0.2-1-0.4-0.3c-0.5,0.6-1.4,1.5-2,2
					c-0.3,0.4-0.5,0.5-0.7,0.5s-0.4-0.2-0.4-0.4c0-0.2,0-0.3,0.2-0.6c2.4-2.6,4.9-5.6,6.8-8.5c0.3-0.5,0.7-0.7,1-0.7
					c1,0,1.6,1.5,1.6,2.5c0,0.5-0.4,1.4-1.1,2.7c-2.3,4.2-3.6,8.1-3.6,9.8C377.3,174.7,377.6,175,378.1,175z M385.7,149.7
					c-0.2,0-0.4-0.2-0.4-0.6c0-0.7,0.4-1.6,0.4-2.3c0-0.5-0.2-0.7-0.2-1.1c0-1.1,1.1-1.6,1.5-2c0.4-0.5,0.7-1.1,1.3-1.1
					c0.5,0,0.7,0.2,0.7,0.9C389.1,146.1,387,149.7,385.7,149.7z"/>
				<path class="st0" d="M400.3,167.5c-4.7,6-8.6,9.4-11,9.4c-2.2,0-3-2-3-4.3c0-6.5,6.1-13.4,11.4-13.4c1.5,0,2.7,0.5,3.4,1.3
					c2.1-11.4,7.4-21.8,11.6-21.8c1.8,0,2.8,1.1,2.8,3.3c0,4.9-4.5,14.5-12.2,22.8c-0.2,1.8-0.3,3.7-0.3,5.6c0,6.3,1.3,7.9,3,7.9
					c0.9,0,1.4-0.3,1.6-0.3c0.1,0,0.2,0.1,0.2,0.2c0,0.3-1.2,1.1-2.6,1.1c-2.8,0-5-1.9-5-8.9C400.2,169.4,400.2,168.5,400.3,167.5z
					 M400.4,165.4c0.1-1.1,0.2-2.3,0.4-3.4c-0.5-0.7-1.3-1.2-2.4-1.2c-4.6,0-8.9,8-8.9,11.6c0,1.6,0.5,2.5,1.2,2.5
					C392.3,174.8,396.3,170.7,400.4,165.4z M403.5,162.6c5.3-5.6,10.5-15.8,10.5-20c0-1.3-0.2-1.8-1.1-1.8
					C410.6,140.8,405.2,150.6,403.5,162.6z"/>
				<path class="st0" d="M430,177.5c0.1,0,0.2,0.1,0.2,0.2c0,0.4-1.4,1.1-2.6,1.1c-2.6,0-5.1-1.8-5.1-6.9c0-0.8,0.1-2.2,0.2-2.9
					c0.1-0.3-0.2-0.5-0.5-0.2c-4,3.9-8.2,7.8-10.5,7.8c-1.8,0-2.5-1.5-2.5-3.1c0-7,7.9-14.5,14.7-14.5c3.8,0,5.9,2,5.9,4.3
					c0,0.9-0.4,1.2-1,1.2c-0.4,0-0.8-0.2-0.8-0.7c0-0.7,0.5-0.9,0.5-1.3c0-0.9-1.2-1.9-3.1-1.9c-6.5,0-12.8,8.7-12.8,12.7
					c0,0.7,0.2,1,0.7,1c1.6,0,5.6-3.6,8.3-6.5c0.7-0.7,0.8-1.3,1.1-1.7c0.6-1,2.5-1.9,2.8-1.9c0.7,0,1.5,1.2,1.5,2
					c0,1.9-1.1,2.1-1.1,6c0,4,1,5.6,2.8,5.6C429.4,177.8,429.7,177.5,430,177.5z"/>
			</g>
		</g>
	</g>
</g>
<text transform="matrix(1 0 0 1 -765.4371 -77.0346)"><tspan x="0" y="0" style="font-family:'AlanaSmooth-Regular'; font-size:164.3863px;">L</tspan><tspan x="91.2" y="0" style="font-family:'AlanaSmooth-Regular'; font-size:81.6704px;">illy </tspan><tspan x="176.1" y="0" style="font-family:'AlanaSmooth-Regular'; font-size:157.0257px;">A</tspan><tspan x="280.5" y="0" style="font-family:'AlanaSmooth-Regular'; font-size:81.6704px;">lmeida</tspan></text>
</svg>
